<svg width="2171" height="2003" viewBox="0 0 2171 2003" fill="none" xmlns="http://www.w3.org/2000/svg">
<path d="M1203.18 529.376H1448.61" stroke="#808080" stroke-linecap="round" stroke-linejoin="round"/>
<path d="M1311.39 547.878V592.732" stroke="#808080" stroke-linecap="round" stroke-linejoin="round"/>
<path d="M1137.2 547.878V592.732" stroke="#808080" stroke-linecap="round" stroke-linejoin="round"/>
<path d="M1329.84 605.909H1472.35" stroke="#808080" stroke-linecap="round" stroke-linejoin="round"/>
<path d="M1116.09 605.909H1258.59" stroke="#808080" stroke-linecap="round" stroke-linejoin="round"/>
<path d="M1403.76 621.747V677.161" stroke="#808080" stroke-linecap="round" stroke-linejoin="round"/>
<path d="M1242.75 627.027V682.441" stroke="#808080" stroke-linecap="round" stroke-linejoin="round"/>
<path d="M1203.18 698.279H1448.61" stroke="#808080" stroke-linecap="round" stroke-linejoin="round"/>
<path d="M1311.39 716.781V761.635" stroke="#808080" stroke-linecap="round" stroke-linejoin="round"/>
<path d="M1137.2 716.781V761.635" stroke="#808080" stroke-linecap="round" stroke-linejoin="round"/>
<path d="M1329.84 774.812H1472.35" stroke="#808080" stroke-linecap="round" stroke-linejoin="round"/>
<path d="M1116.09 774.812H1258.59" stroke="#808080" stroke-linecap="round" stroke-linejoin="round"/>
<path d="M1403.76 790.65V846.064" stroke="#808080" stroke-linecap="round" stroke-linejoin="round"/>
<path d="M1242.75 795.93V851.344" stroke="#808080" stroke-linecap="round" stroke-linejoin="round"/>
<path d="M1709.89 529.376H1955.32" stroke="#808080" stroke-linecap="round" stroke-linejoin="round"/>
<path d="M1818.1 547.878V592.732" stroke="#808080" stroke-linecap="round" stroke-linejoin="round"/>
<path d="M1643.91 547.878V592.732" stroke="#808080" stroke-linecap="round" stroke-linejoin="round"/>
<path d="M1836.55 605.909H1979.06" stroke="#808080" stroke-linecap="round" stroke-linejoin="round"/>
<path d="M1622.79 605.909H1765.3" stroke="#808080" stroke-linecap="round" stroke-linejoin="round"/>
<path d="M1910.47 621.747V677.161" stroke="#808080" stroke-linecap="round" stroke-linejoin="round"/>
<path d="M1749.46 627.027V682.441" stroke="#808080" stroke-linecap="round" stroke-linejoin="round"/>
<path d="M1709.89 698.279H1955.32" stroke="#808080" stroke-linecap="round" stroke-linejoin="round"/>
<path d="M1818.1 716.781V761.635" stroke="#808080" stroke-linecap="round" stroke-linejoin="round"/>
<path d="M1643.91 716.781V761.635" stroke="#808080" stroke-linecap="round" stroke-linejoin="round"/>
<path d="M1836.55 774.812H1979.06" stroke="#808080" stroke-linecap="round" stroke-linejoin="round"/>
<path d="M1622.79 774.812H1765.3" stroke="#808080" stroke-linecap="round" stroke-linejoin="round"/>
<path d="M1910.47 790.65V846.064" stroke="#808080" stroke-linecap="round" stroke-linejoin="round"/>
<path d="M1749.46 795.93V851.344" stroke="#808080" stroke-linecap="round" stroke-linejoin="round"/>
<path d="M1362.78 184.17H1608.22" stroke="#808080" stroke-linecap="round" stroke-linejoin="round"/>
<path d="M1470.99 202.626V247.525" stroke="#808080" stroke-linecap="round" stroke-linejoin="round"/>
<path d="M1296.81 202.626V247.525" stroke="#808080" stroke-linecap="round" stroke-linejoin="round"/>
<path d="M1489.45 260.702H1632" stroke="#808080" stroke-linecap="round" stroke-linejoin="round"/>
<path d="M1275.69 260.702H1418.2" stroke="#808080" stroke-linecap="round" stroke-linejoin="round"/>
<path d="M1563.36 276.541V331.954" stroke="#808080" stroke-linecap="round" stroke-linejoin="round"/>
<path d="M1402.4 281.82V337.234" stroke="#808080" stroke-linecap="round" stroke-linejoin="round"/>
<path d="M1362.78 353.073H1608.22" stroke="#808080" stroke-linecap="round" stroke-linejoin="round"/>
<path d="M1470.99 371.529V416.428" stroke="#808080" stroke-linecap="round" stroke-linejoin="round"/>
<path d="M1296.81 371.529V416.428" stroke="#808080" stroke-linecap="round" stroke-linejoin="round"/>
<path d="M1489.45 429.605H1632" stroke="#808080" stroke-linecap="round" stroke-linejoin="round"/>
<path d="M1275.69 429.605H1418.2" stroke="#808080" stroke-linecap="round" stroke-linejoin="round"/>
<path d="M1563.36 445.444V500.857" stroke="#808080" stroke-linecap="round" stroke-linejoin="round"/>
<path d="M1402.4 450.724V506.137" stroke="#808080" stroke-linecap="round" stroke-linejoin="round"/>
<path d="M1203.18 1295.87H1448.61" stroke="#808080" stroke-linecap="round" stroke-linejoin="round"/>
<path d="M1311.39 1314.37V1359.23" stroke="#808080" stroke-linecap="round" stroke-linejoin="round"/>
<path d="M1137.2 1314.37V1359.23" stroke="#808080" stroke-linecap="round" stroke-linejoin="round"/>
<path d="M1329.84 1372.45H1472.35" stroke="#808080" stroke-linecap="round" stroke-linejoin="round"/>
<path d="M1116.09 1372.45H1258.59" stroke="#808080" stroke-linecap="round" stroke-linejoin="round"/>
<path d="M1403.76 1388.24V1443.7" stroke="#808080" stroke-linecap="round" stroke-linejoin="round"/>
<path d="M1242.75 1393.52V1448.98" stroke="#808080" stroke-linecap="round" stroke-linejoin="round"/>
<path d="M1203.18 1464.77H1448.61" stroke="#808080" stroke-linecap="round" stroke-linejoin="round"/>
<path d="M1311.39 1483.27V1528.13" stroke="#808080" stroke-linecap="round" stroke-linejoin="round"/>
<path d="M1137.2 1483.27V1528.13" stroke="#808080" stroke-linecap="round" stroke-linejoin="round"/>
<path d="M1329.84 1541.31H1472.35" stroke="#808080" stroke-linecap="round" stroke-linejoin="round"/>
<path d="M1116.09 1541.31H1258.59" stroke="#808080" stroke-linecap="round" stroke-linejoin="round"/>
<path d="M1403.76 1557.14V1612.56" stroke="#808080" stroke-linecap="round" stroke-linejoin="round"/>
<path d="M1242.75 1562.42V1617.84" stroke="#808080" stroke-linecap="round" stroke-linejoin="round"/>
<path d="M1709.89 1295.87H1955.32" stroke="#808080" stroke-linecap="round" stroke-linejoin="round"/>
<path d="M1818.1 1314.37V1359.23" stroke="#808080" stroke-linecap="round" stroke-linejoin="round"/>
<path d="M1643.91 1314.37V1359.23" stroke="#808080" stroke-linecap="round" stroke-linejoin="round"/>
<path d="M1836.55 1372.45H1979.06" stroke="#808080" stroke-linecap="round" stroke-linejoin="round"/>
<path d="M1622.79 1372.45H1765.3" stroke="#808080" stroke-linecap="round" stroke-linejoin="round"/>
<path d="M1910.47 1388.24V1443.7" stroke="#808080" stroke-linecap="round" stroke-linejoin="round"/>
<path d="M1749.46 1393.52V1448.98" stroke="#808080" stroke-linecap="round" stroke-linejoin="round"/>
<path d="M1709.89 1464.77H1955.32" stroke="#808080" stroke-linecap="round" stroke-linejoin="round"/>
<path d="M1818.1 1483.27V1528.13" stroke="#808080" stroke-linecap="round" stroke-linejoin="round"/>
<path d="M1643.91 1483.27V1528.13" stroke="#808080" stroke-linecap="round" stroke-linejoin="round"/>
<path d="M1836.55 1541.31H1979.06" stroke="#808080" stroke-linecap="round" stroke-linejoin="round"/>
<path d="M1622.79 1541.31H1765.3" stroke="#808080" stroke-linecap="round" stroke-linejoin="round"/>
<path d="M1910.47 1557.14V1612.56" stroke="#808080" stroke-linecap="round" stroke-linejoin="round"/>
<path d="M1749.46 1562.42V1617.84" stroke="#808080" stroke-linecap="round" stroke-linejoin="round"/>
<path d="M1362.78 950.664H1608.22" stroke="#808080" stroke-linecap="round" stroke-linejoin="round"/>
<path d="M1470.99 969.165V1014.02" stroke="#808080" stroke-linecap="round" stroke-linejoin="round"/>
<path d="M1296.81 969.165V1014.02" stroke="#808080" stroke-linecap="round" stroke-linejoin="round"/>
<path d="M1489.45 1027.2H1632" stroke="#808080" stroke-linecap="round" stroke-linejoin="round"/>
<path d="M1275.69 1027.2H1418.2" stroke="#808080" stroke-linecap="round" stroke-linejoin="round"/>
<path d="M1563.36 1043.03V1098.45" stroke="#808080" stroke-linecap="round" stroke-linejoin="round"/>
<path d="M1402.4 1048.31V1103.73" stroke="#808080" stroke-linecap="round" stroke-linejoin="round"/>
<path d="M1362.78 1119.57H1608.22" stroke="#808080" stroke-linecap="round" stroke-linejoin="round"/>
<path d="M1470.99 1138.02V1182.92" stroke="#808080" stroke-linecap="round" stroke-linejoin="round"/>
<path d="M1296.81 1138.02V1182.92" stroke="#808080" stroke-linecap="round" stroke-linejoin="round"/>
<path d="M1489.45 1196.1H1632" stroke="#808080" stroke-linecap="round" stroke-linejoin="round"/>
<path d="M1275.69 1196.1H1418.2" stroke="#808080" stroke-linecap="round" stroke-linejoin="round"/>
<path d="M1563.36 1211.94V1267.35" stroke="#808080" stroke-linecap="round" stroke-linejoin="round"/>
<path d="M1402.4 1217.22V1272.63" stroke="#808080" stroke-linecap="round" stroke-linejoin="round"/>
<path d="M679.004 371.439H924.439" stroke="#808080" stroke-linecap="round" stroke-linejoin="round"/>
<path d="M787.214 389.94V434.794" stroke="#808080" stroke-linecap="round" stroke-linejoin="round"/>
<path d="M613.031 389.94V434.794" stroke="#808080" stroke-linecap="round" stroke-linejoin="round"/>
<path d="M805.715 447.971H948.22" stroke="#808080" stroke-linecap="round" stroke-linejoin="round"/>
<path d="M591.912 447.971H734.462" stroke="#808080" stroke-linecap="round" stroke-linejoin="round"/>
<path d="M879.585 463.81V519.223" stroke="#808080" stroke-linecap="round" stroke-linejoin="round"/>
<path d="M718.624 469.089V524.503" stroke="#808080" stroke-linecap="round" stroke-linejoin="round"/>
<path d="M679.004 540.342H924.439" stroke="#808080" stroke-linecap="round" stroke-linejoin="round"/>
<path d="M787.214 558.843V603.697" stroke="#808080" stroke-linecap="round" stroke-linejoin="round"/>
<path d="M613.031 558.843V603.697" stroke="#808080" stroke-linecap="round" stroke-linejoin="round"/>
<path d="M805.715 616.874H948.22" stroke="#808080" stroke-linecap="round" stroke-linejoin="round"/>
<path d="M591.912 616.874H734.462" stroke="#808080" stroke-linecap="round" stroke-linejoin="round"/>
<path d="M879.585 632.713V688.126" stroke="#808080" stroke-linecap="round" stroke-linejoin="round"/>
<path d="M718.624 637.992V693.406" stroke="#808080" stroke-linecap="round" stroke-linejoin="round"/>
<path d="M838.656 26.2322H1084.09" stroke="#808080" stroke-linecap="round" stroke-linejoin="round"/>
<path d="M946.821 44.6882V89.5877" stroke="#808080" stroke-linecap="round" stroke-linejoin="round"/>
<path d="M772.683 44.6882V89.5877" stroke="#808080" stroke-linecap="round" stroke-linejoin="round"/>
<path d="M965.322 102.764H1107.83" stroke="#808080" stroke-linecap="round" stroke-linejoin="round"/>
<path d="M751.565 102.764H894.07" stroke="#808080" stroke-linecap="round" stroke-linejoin="round"/>
<path d="M1039.19 118.603V174.017" stroke="#808080" stroke-linecap="round" stroke-linejoin="round"/>
<path d="M878.231 123.883V179.296" stroke="#808080" stroke-linecap="round" stroke-linejoin="round"/>
<path d="M838.656 195.135H1084.09" stroke="#808080" stroke-linecap="round" stroke-linejoin="round"/>
<path d="M946.821 213.591V258.491" stroke="#808080" stroke-linecap="round" stroke-linejoin="round"/>
<path d="M772.683 213.591V258.491" stroke="#808080" stroke-linecap="round" stroke-linejoin="round"/>
<path d="M965.322 271.667H1107.83" stroke="#808080" stroke-linecap="round" stroke-linejoin="round"/>
<path d="M751.565 271.667H894.07" stroke="#808080" stroke-linecap="round" stroke-linejoin="round"/>
<path d="M1039.19 287.506V342.92" stroke="#808080" stroke-linecap="round" stroke-linejoin="round"/>
<path d="M878.231 292.786V348.199" stroke="#808080" stroke-linecap="round" stroke-linejoin="round"/>
<path d="M101.313 718.902H346.748" stroke="#808080" stroke-linecap="round" stroke-linejoin="round"/>
<path d="M209.523 737.403V782.257" stroke="#808080" stroke-linecap="round" stroke-linejoin="round"/>
<path d="M35.3401 737.403V782.257" stroke="#808080" stroke-linecap="round" stroke-linejoin="round"/>
<path d="M227.979 795.434H370.484" stroke="#808080" stroke-linecap="round" stroke-linejoin="round"/>
<path d="M14.2216 795.434H156.727" stroke="#808080" stroke-linecap="round" stroke-linejoin="round"/>
<path d="M301.894 811.273V866.686" stroke="#808080" stroke-linecap="round" stroke-linejoin="round"/>
<path d="M140.888 816.552V871.966" stroke="#808080" stroke-linecap="round" stroke-linejoin="round"/>
<path d="M101.313 887.805H346.748" stroke="#808080" stroke-linecap="round" stroke-linejoin="round"/>
<path d="M209.523 906.306V951.16" stroke="#808080" stroke-linecap="round" stroke-linejoin="round"/>
<path d="M35.3401 906.306V951.16" stroke="#808080" stroke-linecap="round" stroke-linejoin="round"/>
<path d="M227.979 964.337H370.484" stroke="#808080" stroke-linecap="round" stroke-linejoin="round"/>
<path d="M14.2216 964.337H156.727" stroke="#808080" stroke-linecap="round" stroke-linejoin="round"/>
<path d="M301.894 980.176V1035.59" stroke="#808080" stroke-linecap="round" stroke-linejoin="round"/>
<path d="M140.888 985.455V1040.87" stroke="#808080" stroke-linecap="round" stroke-linejoin="round"/>
<path d="M260.92 373.695H506.355" stroke="#808080" stroke-linecap="round" stroke-linejoin="round"/>
<path d="M369.13 392.151V437.051" stroke="#808080" stroke-linecap="round" stroke-linejoin="round"/>
<path d="M194.947 392.151V437.051" stroke="#808080" stroke-linecap="round" stroke-linejoin="round"/>
<path d="M387.586 450.227H530.091" stroke="#808080" stroke-linecap="round" stroke-linejoin="round"/>
<path d="M173.829 450.227H316.334" stroke="#808080" stroke-linecap="round" stroke-linejoin="round"/>
<path d="M461.501 466.066V521.479" stroke="#808080" stroke-linecap="round" stroke-linejoin="round"/>
<path d="M300.495 471.346V526.759" stroke="#808080" stroke-linecap="round" stroke-linejoin="round"/>
<path d="M260.92 542.598H506.355" stroke="#808080" stroke-linecap="round" stroke-linejoin="round"/>
<path d="M369.13 561.054V605.954" stroke="#808080" stroke-linecap="round" stroke-linejoin="round"/>
<path d="M194.947 561.054V605.954" stroke="#808080" stroke-linecap="round" stroke-linejoin="round"/>
<path d="M387.586 619.13H530.091" stroke="#808080" stroke-linecap="round" stroke-linejoin="round"/>
<path d="M173.829 619.13H316.334" stroke="#808080" stroke-linecap="round" stroke-linejoin="round"/>
<path d="M461.501 634.969V690.383" stroke="#808080" stroke-linecap="round" stroke-linejoin="round"/>
<path d="M300.495 640.249V695.662" stroke="#808080" stroke-linecap="round" stroke-linejoin="round"/>
<path d="M2037.18 719.578C2037.18 719.578 2037.18 687.359 1992.05 642.324C1946.93 597.29 1918 571.478 1918 571.478C1918 571.478 1895.44 645.528 1937.32 690.608C1979.19 735.688 2037.13 777.519 2037.13 777.519L2037.18 719.578Z" fill="#F9B443"/>
<path d="M1971.75 920.611C1971.75 920.611 1971.75 888.391 1926.62 843.357C1881.5 798.322 1852.62 772.51 1852.62 772.51C1852.62 772.51 1830.05 846.56 1871.93 891.64C1913.81 936.72 1971.75 978.371 1971.75 978.371V920.611Z" fill="#F9B443"/>
<path d="M2034.33 774.405C2034.33 774.405 2037.72 742.367 2087.31 702.205C2136.9 662.044 2168.54 639.572 2168.54 639.572C2168.54 639.572 2183.11 715.608 2136.95 755.994C2090.79 796.381 2028.65 831.85 2028.65 831.85L2034.33 774.405Z" fill="#F9B443"/>
<path d="M1955.32 1011.81C1955.32 1011.81 1962.04 980.221 2015.56 945.7C2069.08 911.179 2102.79 891.956 2102.79 891.956C2102.79 891.956 2109.33 969.075 2058.97 1004.36C2008.61 1039.65 1943.18 1068.62 1943.18 1068.62L1955.32 1011.81Z" fill="#F9B443"/>
<path d="M1970.17 1270.65C1970.17 1270.65 1970.17 1238.47 2015.29 1193.39C2060.42 1148.31 2089.25 1122.77 2089.25 1122.77C2089.25 1122.77 2111.81 1196.82 2069.94 1241.86C2028.06 1286.89 1970.17 1328.77 1970.17 1328.77V1270.65Z" fill="#F9B443"/>
<path d="M1969.4 1333.82C1969.4 1333.82 1973.91 1301.96 1935.78 1250.97C1897.65 1199.98 1872.61 1170.33 1872.61 1170.33C1872.61 1170.33 1839.8 1240.41 1874.82 1291C1909.83 1341.58 1961.23 1391.17 1961.23 1391.17L1969.4 1333.82Z" fill="#F9B443"/>
<path d="M1925 1521.09C1925 1521.09 1925 1488.92 1970.12 1443.84C2015.25 1398.76 2044.17 1373.03 2044.17 1373.03C2044.17 1373.03 2066.73 1447.04 2024.86 1492.12C1982.98 1537.2 1925.09 1579.03 1925.09 1579.03L1925 1521.09Z" fill="#F9B443"/>
<path d="M1954.91 1690.85C1954.91 1690.85 1946.79 1659.71 1978.97 1604.71C2011.14 1549.7 2032.67 1517.43 2032.67 1517.43C2032.67 1517.43 2073.28 1583.36 2044.13 1637.56C2014.98 1691.75 1969.63 1746.9 1969.63 1746.9L1954.91 1690.85Z" fill="#F9B443"/>
<path d="M2041.24 711.321C2038.97 744.886 2034.85 778.3 2028.87 811.408C2011.1 903.418 1966.56 962.803 1948.73 1046.06C1930.91 1129.31 1981.99 1236.03 1968.45 1342.85C1954.91 1449.66 1913.17 1509 1925.09 1580.25C1937 1651.5 2002.52 1855.24 2002.52 1855.24" stroke="#263238" stroke-linecap="round" stroke-linejoin="round"/>
<path d="M2033.88 795.795L2082.44 758.521" stroke="#263238" stroke-linecap="round" stroke-linejoin="round"/>
<path d="M2036.14 752.881L2015.79 716.736" stroke="#263238" stroke-linecap="round" stroke-linejoin="round"/>
<path d="M1951.44 1042C1951.44 1042 1992.05 1011.49 2033.88 980.988" stroke="#263238" stroke-linecap="round" stroke-linejoin="round"/>
<path d="M1971.75 978.371C1971.75 978.371 1937.86 911.947 1899.55 867.905" stroke="#263238" stroke-linecap="round" stroke-linejoin="round"/>
<path d="M1971.75 1316.45C1994.96 1273.67 2024.25 1234.49 2058.7 1200.12" stroke="#263238" stroke-linecap="round" stroke-linejoin="round"/>
<path d="M1963.94 1361.62C1951.61 1332.58 1936.88 1304.63 1919.9 1278.05C1896.16 1243.03 1892.82 1238.52 1892.82 1238.52" stroke="#263238" stroke-linecap="round" stroke-linejoin="round"/>
<path d="M1925 1580.25C1935.3 1554.72 1947.54 1530.01 1961.59 1506.33C1975.68 1484.31 1991.56 1463.48 2009.06 1444.06" stroke="#263238" stroke-linecap="round" stroke-linejoin="round"/>
<path d="M1969.76 1746.9C1969.76 1746.9 1964.98 1708.36 1981.94 1675.6C1998.91 1642.84 2018.04 1599.92 2025.99 1583" stroke="#263238" stroke-linecap="round" stroke-linejoin="round"/>
<path d="M1742.06 1149.58C1742.06 1149.58 1738.54 1129.4 1761.91 1096.28C1785.29 1063.16 1800.68 1043.8 1800.68 1043.8C1800.68 1043.8 1822.83 1087.8 1801.49 1120.51C1785.63 1143.77 1767.85 1165.66 1748.33 1185.95L1742.06 1149.58Z" fill="#F9B443"/>
<path d="M1804.87 1268.57C1804.87 1268.57 1801.4 1248.35 1824.77 1215.23C1848.15 1182.11 1863.49 1162.8 1863.49 1162.8C1863.49 1162.8 1885.65 1206.75 1864.3 1239.51C1848.45 1262.73 1830.69 1284.59 1811.19 1304.85L1804.87 1268.57Z" fill="#F9B443"/>
<path d="M1749.78 1183.69C1749.78 1183.69 1744.18 1163.97 1708.76 1144.25C1673.33 1124.53 1651.09 1113.75 1651.09 1113.75C1651.09 1113.75 1650.19 1162.98 1683.67 1183.28C1708.03 1197.34 1733.52 1209.32 1759.88 1219.11L1749.78 1183.69Z" fill="#F9B443"/>
<path d="M1825.09 1323.98C1825.09 1323.98 1817.46 1304.99 1779.96 1289.06C1742.47 1273.13 1719.41 1264.82 1719.41 1264.82C1719.41 1264.82 1723.69 1313.92 1759.12 1330.57C1784.82 1341.97 1811.43 1351.21 1838.67 1358.19L1825.09 1323.98Z" fill="#F9B443"/>
<path d="M1843.91 1487.92C1843.91 1487.92 1840.39 1467.71 1807.22 1444.33C1774.05 1420.96 1753.07 1408.01 1753.07 1408.01C1753.07 1408.01 1746.98 1456.88 1778.11 1480.57C1800.91 1497.13 1825.07 1511.74 1850.31 1524.25L1843.91 1487.92Z" fill="#F9B443"/>
<path d="M1851.13 1527.45C1851.13 1527.45 1844.81 1507.96 1863.22 1471.81C1881.63 1435.67 1894.13 1414.41 1894.13 1414.41C1894.13 1414.41 1922.29 1454.8 1905.82 1490.31C1893.41 1515.54 1878.92 1539.69 1862.5 1562.51L1851.13 1527.45Z" fill="#F9B443"/>
<path d="M1907.76 1690.26C1907.76 1690.26 1910.11 1669.91 1941.87 1644.69C1973.64 1619.46 1993.81 1605.29 1993.81 1605.29C1993.81 1605.29 2002.84 1653.76 1972.96 1679.21C1951.2 1697.01 1927.99 1712.97 1903.56 1726.91L1907.76 1690.26Z" fill="#F9B443"/>
<path d="M1899.41 1640.04C1899.41 1640.04 1895.94 1619.87 1862.77 1596.49C1829.6 1573.12 1808.62 1560.12 1808.62 1560.12C1808.62 1560.12 1802.53 1608.99 1833.66 1632.73C1856.4 1649.25 1880.48 1663.84 1905.64 1676.36L1899.41 1640.04Z" fill="#F9B443"/>
<path d="M1898.96 1750.01C1898.96 1750.01 1900.72 1729.57 1874.55 1698.57C1848.37 1667.57 1831.41 1649.7 1831.41 1649.7C1831.41 1649.7 1813.13 1695.41 1837.23 1726.41C1855.07 1748.16 1874.69 1768.39 1895.89 1786.88L1898.96 1750.01Z" fill="#F9B443"/>
<path d="M1738.59 1144.88C1743.68 1165.64 1749.89 1186.11 1757.18 1206.21C1778.34 1261.98 1812.73 1294.38 1832.9 1344.61C1853.07 1394.83 1832.9 1467.48 1852.84 1532.96C1872.79 1598.43 1905.55 1631.15 1905.82 1677.36C1906.09 1723.57 1887.77 1851.13 1887.77 1851.13" stroke="#263238" stroke-linecap="round" stroke-linejoin="round"/>
<path d="M1752.39 1197.05L1717.87 1178.95" stroke="#263238" stroke-linecap="round" stroke-linejoin="round"/>
<path d="M1746.3 1170.38L1755.15 1145.51" stroke="#263238" stroke-linecap="round" stroke-linejoin="round"/>
<path d="M1830.82 1342.48C1830.82 1342.48 1801.99 1327.77 1772.47 1313.2" stroke="#263238" stroke-linecap="round" stroke-linejoin="round"/>
<path d="M1811.19 1304.9C1811.19 1304.9 1825.23 1259.54 1844.49 1227.78" stroke="#263238" stroke-linecap="round" stroke-linejoin="round"/>
<path d="M1847.88 1516.8C1828.67 1492.49 1806.04 1471.09 1780.69 1453.27" stroke="#263238" stroke-linecap="round" stroke-linejoin="round"/>
<path d="M1857.72 1544.28C1862.31 1524.73 1868.51 1505.59 1876.26 1487.07C1887.36 1462.56 1888.99 1459.36 1888.99 1459.36" stroke="#263238" stroke-linecap="round" stroke-linejoin="round"/>
<path d="M1904.28 1712.01C1904.28 1712.01 1927.12 1683.99 1941.38 1673.48C1949.96 1667.16 1958.02 1660.15 1965.47 1652.54" stroke="#263238" stroke-linecap="round" stroke-linejoin="round"/>
<path d="M1905.82 1677.13C1896.6 1662.2 1886.23 1648 1874.82 1634.67C1863.61 1622.42 1851.42 1611.12 1838.36 1600.87" stroke="#263238" stroke-linecap="round" stroke-linejoin="round"/>
<path d="M1895.85 1786.52C1894.68 1770.93 1889.37 1755.94 1880.46 1743.1C1866.29 1724.42 1849.59 1699.6 1842.78 1689.81" stroke="#263238" stroke-linecap="round" stroke-linejoin="round"/>
<path d="M574.675 589.754H611.271C723.769 589.754 831.66 634.443 911.208 713.992C990.757 793.54 1035.45 901.431 1035.45 1013.93V1496.77H150.499V1013.93C150.499 901.431 195.189 793.54 274.737 713.992C354.286 634.443 462.176 589.754 574.675 589.754Z" fill="#263238"/>
<path d="M1008.96 1272.18C998.94 1244.83 989.69 1218.8 987.434 1204.81C984.345 1184.92 975.994 1166.23 963.247 1150.66C964.693 1165.31 963.779 1180.11 960.539 1194.47C955.169 1220.24 917.535 1215.1 917.535 1215.1C930.951 1193.56 936.632 1168.09 933.644 1142.9C928.275 1101.65 896.01 1096.46 896.01 1075.84C896.01 1055.22 925.567 1060.41 925.567 1060.41C925.567 1060.41 920.197 1050.07 896.01 1044.93C871.823 1039.79 853.006 1044.93 855.668 1086.17C858.331 1127.42 836.851 1163.38 836.851 1163.38C836.851 1163.38 804.587 1132.47 804.587 1119.57C804.587 1106.66 812.664 1080.94 804.587 1047.37C796.509 1013.79 783.062 998.406 783.062 998.406V1029.32C783.062 1049.94 766.953 1065.42 748.135 1080.89C729.318 1096.37 732.026 1140.37 732.026 1140.37C732.026 1140.37 707.839 1104.27 710.501 1075.93C713.163 1047.59 750.843 1019.25 745.473 972.82C740.103 926.387 694.391 859.421 678.237 838.799C662.082 818.177 651.162 738.26 651.162 738.26C651.162 738.26 626.975 805.271 635.052 831.037C643.129 856.804 662.127 885.187 643.129 916.143C624.132 947.099 581.263 978.01 557.076 1008.92C532.889 1039.83 565.063 1127.51 565.063 1127.51C565.063 1127.51 532.799 1065.64 522.059 1057.88C511.319 1050.12 470.977 1034.69 457.53 1016.64C444.083 998.587 473.64 959.96 473.64 959.96C473.64 959.96 438.713 975.392 422.558 998.632C406.403 1021.87 406.449 1065.64 411.818 1088.88C417.188 1112.12 419.896 1132.7 419.896 1132.7C418.12 1126.31 415.397 1120.23 411.818 1114.65C406.449 1106.93 374.184 1083.74 374.184 1083.74C374.184 1083.74 382.216 1124.98 366.107 1145.6C357.052 1156.94 348.961 1169.02 341.92 1181.7C341.92 1181.7 339.212 1155.94 325.765 1137.89C312.318 1119.84 288.131 1112.12 288.131 1112.12C288.131 1112.12 296.208 1145.65 288.131 1168.84C280.053 1192.04 261.056 1192.04 231.634 1220.38C202.213 1248.71 213.088 1277.01 213.088 1277.01L210.425 1279.08V1405.89H1009.14L1008.96 1272.18Z" fill="#F9B443"/>
<path d="M608.293 524.322C321.659 524.322 89.3548 747.06 89.3548 1021.83V1532.19H1127.23V1021.83C1127.28 747.06 894.927 524.322 608.293 524.322ZM995.511 1405.89H221.075V1034.69C221.075 829.684 394.445 663.488 608.293 663.488C822.141 663.488 995.511 829.684 995.511 1034.69V1405.89Z" fill="#CCCCCC" stroke="#263238" stroke-linecap="round" stroke-linejoin="round"/>
<path d="M221.075 1034.69C221.035 978.439 234.286 922.978 259.747 872.823L152.936 783.024C111.201 855.688 89.2615 938.03 89.3097 1021.83V1160.99H221.075V1034.69Z" fill="#9C9C9C" stroke="#263238" stroke-linecap="round" stroke-linejoin="round"/>
<path d="M635.187 664.481C768.442 673.28 883.104 746.608 945.422 852.201L1046.14 754.641C958.508 622.966 808.016 533.528 635.187 524.954V664.481Z" fill="#9C9C9C" stroke="#263238" stroke-linecap="round" stroke-linejoin="round"/>
<path d="M1127.28 1160.99V1021.83C1127.36 932.208 1102.35 844.357 1055.08 768.223L953.409 866.461C981.052 918.225 995.512 976.004 995.511 1034.69V1161.04L1127.28 1160.99Z" fill="#9C9C9C" stroke="#263238" stroke-linecap="round" stroke-linejoin="round"/>
<path d="M995.511 1176.47V1405.89H221.075V1176.47H89.3097V1532.19H1127.28V1176.47H995.511Z" fill="#9C9C9C" stroke="#263238" stroke-linecap="round" stroke-linejoin="round"/>
<path d="M267.238 858.609C332.624 742.457 460.779 663.488 608.158 663.488C611.768 663.488 615.332 663.488 618.897 663.759V524.458C615.332 524.458 611.768 524.458 608.158 524.458C417.685 524.458 251.218 622.83 160.968 769.442L267.238 858.609Z" fill="#9C9C9C" stroke="#263238" stroke-linecap="round" stroke-linejoin="round"/>
<path d="M419.084 1398.17H103.975C95.8758 1398.17 89.3097 1404.74 89.3097 1412.83V1517.52C89.3097 1525.62 95.8758 1532.19 103.975 1532.19H419.084C427.183 1532.19 433.749 1525.62 433.749 1517.52V1412.83C433.749 1404.74 427.183 1398.17 419.084 1398.17Z" fill="#CCCCCC" stroke="#263238" stroke-linecap="round" stroke-linejoin="round"/>
<path d="M765.825 1398.17H450.716C442.617 1398.17 436.051 1404.74 436.051 1412.83V1517.52C436.051 1525.62 442.617 1532.19 450.716 1532.19H765.825C773.924 1532.19 780.49 1525.62 780.49 1517.52V1412.83C780.49 1404.74 773.924 1398.17 765.825 1398.17Z" fill="#CCCCCC" stroke="#263238" stroke-linecap="round" stroke-linejoin="round"/>
<path d="M1112.57 1398.17H797.457C789.358 1398.17 782.792 1404.74 782.792 1412.83V1517.52C782.792 1525.62 789.358 1532.19 797.457 1532.19H1112.57C1120.66 1532.19 1127.23 1525.62 1127.23 1517.52V1412.83C1127.23 1404.74 1120.66 1398.17 1112.57 1398.17Z" fill="#CCCCCC" stroke="#263238" stroke-linecap="round" stroke-linejoin="round"/>
<path d="M868.213 1035.41C868.213 1035.41 813.567 850.396 790.688 790.515C767.81 730.634 774.804 665.429 776.564 654.869C778.324 644.31 801.248 589.664 797.728 577.344C794.208 565.025 767.765 506.859 762.485 480.416C757.206 453.973 746.646 457.492 741.367 480.416C736.087 503.339 746.646 536.822 748.406 542.102C749.581 546.702 750.172 551.433 750.166 556.181C750.166 556.181 684.96 496.255 681.441 489.215C677.921 482.176 672.641 468.097 672.641 468.097C672.641 468.097 684.96 406.411 672.641 409.93C660.322 413.45 635.639 512.139 633.879 549.141C632.119 586.144 707.884 683.027 707.884 683.027C707.884 683.027 695.52 843.357 706.124 963.209C716.728 1083.06 736.042 1134.1 762.485 1169.34C788.929 1204.58 815.327 1206.34 829.451 1200.93C843.575 1195.51 878.773 1174.48 878.773 1174.48L868.213 1035.41Z" fill="#CCCCCC" stroke="#263238" stroke-linecap="round" stroke-linejoin="round"/>
<path d="M628.599 556.181C628.599 556.181 647.958 450.453 658.517 436.374C669.076 422.295 679.681 445.399 674.401 461.057C669.121 476.715 662.082 552.661 662.082 552.661" fill="#CCCCCC"/>
<path d="M628.599 556.181C628.599 556.181 647.958 450.453 658.517 436.374C669.076 422.295 679.681 445.399 674.401 461.057C669.121 476.715 662.082 552.661 662.082 552.661" stroke="#263238" stroke-linecap="round" stroke-linejoin="round"/>
<path d="M644.438 506.859C644.438 506.859 669.121 443.413 683.201 445.173C697.28 446.933 688.48 480.416 681.441 496.255C674.401 512.094 667.362 545.621 667.362 545.621L676.387 572.02" fill="#CCCCCC"/>
<path d="M644.438 506.859C644.438 506.859 669.121 443.413 683.201 445.173C697.28 446.933 688.48 480.416 681.441 496.255C674.401 512.094 667.362 545.621 667.362 545.621L676.387 572.02" stroke="#263238" stroke-linecap="round" stroke-linejoin="round"/>
<path d="M734.282 676.033C734.287 660.698 733.111 645.385 730.762 630.231C727.243 612.587 662.082 552.706 662.082 552.706C662.082 552.706 681.441 489.26 672.641 468.142C663.842 447.023 628.599 556.226 628.599 556.226C626.81 567.268 629.33 578.576 635.639 587.813C646.198 601.892 707.839 682.937 707.839 682.937" fill="#CCCCCC"/>
<path d="M734.282 676.033C734.287 660.698 733.111 645.385 730.762 630.231C727.243 612.587 662.082 552.706 662.082 552.706C662.082 552.706 681.441 489.26 672.641 468.142C663.842 447.023 628.599 556.226 628.599 556.226C626.81 567.268 629.33 578.576 635.639 587.813C646.198 601.892 707.839 682.937 707.839 682.937" stroke="#263238" stroke-linecap="round" stroke-linejoin="round"/>
<path d="M1298.12 993.126C1298.12 993.126 1143.07 919.121 1123.67 929.951C1104.26 940.781 1044.38 991.592 1044.38 991.592L862.888 1026.61L866.408 1199.3L1046.1 1204.58L1056.7 1218.66L1060.22 1229.22C1060.22 1229.22 1032.02 1472.4 1032.02 1574.56C1032.02 1676.73 988.562 1854.74 988.562 1854.74H1548.11C1548.11 1854.74 1727.8 1239.83 1713.72 1220.42C1699.64 1201.02 1456.51 1053.05 1456.51 1053.05L1298.12 993.126Z" fill="#263238" stroke="#263238" stroke-linecap="round" stroke-linejoin="round"/>
<path d="M1079.08 1678.53C1141.67 1716.21 1279.62 1771.44 1543.87 1764" stroke="#808080" stroke-linecap="round" stroke-linejoin="round"/>
<path d="M1035.31 1645.23C1041.81 1652.09 1048.99 1658.28 1056.75 1663.68" stroke="#808080" stroke-linecap="round" stroke-linejoin="round"/>
<path d="M1118.21 1757.27C1118.21 1757.27 1201.33 1813.18 1389.36 1813.18" stroke="#808080" stroke-linecap="round" stroke-linejoin="round"/>
<path d="M1060.81 1076.07L1046.19 1204.58L1060.27 1229.27L1060.81 1076.07Z" fill="#263238" stroke="#263238" stroke-linecap="round" stroke-linejoin="round"/>
<path d="M1325.96 1675.78C1325.37 1682.05 1324.88 1688.28 1324.38 1694.55" stroke="#808080" stroke-linecap="round" stroke-linejoin="round"/>
<path d="M1314.14 1105.89L1432.19 1165.82C1432.19 1165.82 1354.75 1414.59 1328.85 1647.3" stroke="#808080" stroke-linecap="round" stroke-linejoin="round"/>
<path d="M1315.72 1142.04C1315.72 1143.96 1315.15 1145.84 1314.08 1147.43C1313.01 1149.03 1311.49 1150.27 1309.72 1151.01C1307.94 1151.74 1305.99 1151.93 1304.11 1151.55C1302.22 1151.17 1300.5 1150.24 1299.14 1148.88C1297.79 1147.52 1296.86 1145.79 1296.5 1143.9C1296.13 1142.02 1296.32 1140.07 1297.07 1138.3C1297.81 1136.52 1299.06 1135.01 1300.66 1133.95C1302.26 1132.89 1304.14 1132.33 1306.06 1132.34C1307.33 1132.34 1308.59 1132.59 1309.77 1133.08C1310.94 1133.56 1312.01 1134.28 1312.91 1135.18C1313.8 1136.08 1314.51 1137.15 1315 1138.33C1315.48 1139.51 1315.72 1140.77 1315.72 1142.04Z" stroke="#808080" stroke-linecap="round" stroke-linejoin="round"/>
<path d="M1404.7 1185.18C1404.71 1187.1 1404.15 1188.98 1403.09 1190.59C1402.03 1192.19 1400.51 1193.44 1398.74 1194.18C1396.96 1194.92 1395.01 1195.11 1393.12 1194.74C1391.24 1194.37 1389.5 1193.44 1388.14 1192.08C1386.78 1190.72 1385.86 1188.99 1385.49 1187.11C1385.11 1185.22 1385.31 1183.26 1386.05 1181.49C1386.79 1179.72 1388.04 1178.2 1389.64 1177.14C1391.24 1176.08 1393.13 1175.51 1395.05 1175.52C1397.61 1175.52 1400.07 1176.54 1401.88 1178.35C1403.69 1180.16 1404.7 1182.62 1404.7 1185.18Z" stroke="#808080" stroke-linecap="round" stroke-linejoin="round"/>
<path d="M1278.76 1243.35C1278.76 1245.26 1278.19 1247.14 1277.13 1248.74C1276.06 1250.33 1274.54 1251.57 1272.77 1252.31C1271 1253.04 1269.05 1253.23 1267.17 1252.86C1265.28 1252.49 1263.56 1251.56 1262.2 1250.21C1260.84 1248.85 1259.92 1247.12 1259.54 1245.24C1259.17 1243.36 1259.36 1241.41 1260.1 1239.63C1260.83 1237.86 1262.07 1236.34 1263.67 1235.28C1265.26 1234.21 1267.14 1233.64 1269.06 1233.64C1271.63 1233.66 1274.09 1234.68 1275.91 1236.5C1277.72 1238.31 1278.75 1240.78 1278.76 1243.35Z" stroke="#808080" stroke-linecap="round" stroke-linejoin="round"/>
<path d="M1367.7 1286.48C1367.71 1288.41 1367.15 1290.29 1366.09 1291.89C1365.02 1293.49 1363.51 1294.74 1361.73 1295.48C1359.96 1296.22 1358.01 1296.42 1356.12 1296.05C1354.23 1295.67 1352.5 1294.75 1351.14 1293.39C1349.78 1292.03 1348.86 1290.3 1348.48 1288.41C1348.11 1286.52 1348.31 1284.57 1349.05 1282.8C1349.79 1281.02 1351.04 1279.51 1352.64 1278.44C1354.24 1277.38 1356.12 1276.82 1358.05 1276.83C1360.61 1276.83 1363.06 1277.84 1364.87 1279.66C1366.68 1281.47 1367.7 1283.92 1367.7 1286.48Z" stroke="#808080" stroke-linecap="round" stroke-linejoin="round"/>
<path d="M1251.42 1346.41C1251.42 1348.33 1250.85 1350.21 1249.78 1351.81C1248.71 1353.4 1247.19 1354.65 1245.42 1355.38C1243.64 1356.11 1241.69 1356.3 1239.8 1355.92C1237.92 1355.54 1236.19 1354.62 1234.84 1353.25C1233.48 1351.89 1232.56 1350.16 1232.19 1348.28C1231.82 1346.39 1232.02 1344.44 1232.76 1342.67C1233.5 1340.89 1234.75 1339.38 1236.36 1338.32C1237.96 1337.26 1239.84 1336.7 1241.76 1336.71C1243.03 1336.71 1244.29 1336.96 1245.46 1337.45C1246.64 1337.94 1247.71 1338.65 1248.6 1339.55C1249.5 1340.45 1250.21 1341.52 1250.69 1342.7C1251.18 1343.88 1251.42 1345.14 1251.42 1346.41Z" stroke="#808080" stroke-linecap="round" stroke-linejoin="round"/>
<path d="M1340.4 1389.6C1340.4 1391.51 1339.83 1393.39 1338.77 1394.99C1337.7 1396.58 1336.19 1397.82 1334.41 1398.56C1332.64 1399.29 1330.69 1399.49 1328.81 1399.11C1326.93 1398.74 1325.2 1397.81 1323.84 1396.46C1322.48 1395.1 1321.56 1393.37 1321.18 1391.49C1320.81 1389.61 1321 1387.66 1321.74 1385.88C1322.47 1384.11 1323.71 1382.59 1325.31 1381.53C1326.91 1380.46 1328.78 1379.89 1330.7 1379.89C1331.98 1379.89 1333.24 1380.13 1334.42 1380.62C1335.6 1381.11 1336.67 1381.82 1337.57 1382.72C1338.48 1383.62 1339.19 1384.7 1339.68 1385.88C1340.16 1387.06 1340.41 1388.32 1340.4 1389.6Z" stroke="#808080" stroke-linecap="round" stroke-linejoin="round"/>
<path d="M1232.06 1448.62C1232.06 1450.54 1231.49 1452.41 1230.42 1454.01C1229.36 1455.6 1227.84 1456.85 1226.07 1457.58C1224.29 1458.32 1222.34 1458.51 1220.46 1458.13C1218.58 1457.76 1216.85 1456.84 1215.49 1455.48C1214.14 1454.12 1213.21 1452.39 1212.84 1450.51C1212.46 1448.63 1212.66 1446.68 1213.39 1444.91C1214.13 1443.13 1215.37 1441.62 1216.96 1440.55C1218.56 1439.49 1220.44 1438.92 1222.35 1438.92C1223.63 1438.91 1224.89 1439.16 1226.07 1439.64C1227.25 1440.13 1228.33 1440.84 1229.23 1441.75C1230.13 1442.65 1230.84 1443.72 1231.33 1444.9C1231.82 1446.08 1232.06 1447.34 1232.06 1448.62Z" stroke="#808080" stroke-linecap="round" stroke-linejoin="round"/>
<path d="M1321.04 1491.76C1321.05 1493.68 1320.49 1495.56 1319.43 1497.16C1318.37 1498.76 1316.86 1500.01 1315.09 1500.75C1313.31 1501.5 1311.36 1501.69 1309.48 1501.32C1307.59 1500.96 1305.86 1500.03 1304.5 1498.68C1303.14 1497.32 1302.21 1495.6 1301.83 1493.71C1301.45 1491.83 1301.64 1489.88 1302.37 1488.1C1303.11 1486.33 1304.35 1484.81 1305.95 1483.74C1307.54 1482.67 1309.42 1482.1 1311.34 1482.1C1313.91 1482.1 1316.37 1483.12 1318.19 1484.93C1320 1486.74 1321.03 1489.19 1321.04 1491.76Z" stroke="#808080" stroke-linecap="round" stroke-linejoin="round"/>
<path d="M1214.41 1557.87C1214.41 1559.79 1213.84 1561.66 1212.77 1563.26C1211.71 1564.86 1210.19 1566.1 1208.41 1566.83C1206.64 1567.57 1204.68 1567.76 1202.8 1567.38C1200.92 1567 1199.19 1566.07 1197.83 1564.71C1196.48 1563.35 1195.56 1561.62 1195.19 1559.73C1194.82 1557.85 1195.02 1555.89 1195.76 1554.12C1196.5 1552.35 1197.75 1550.84 1199.35 1549.78C1200.95 1548.72 1202.84 1548.16 1204.76 1548.16C1206.03 1548.16 1207.29 1548.42 1208.46 1548.9C1209.64 1549.39 1210.7 1550.11 1211.6 1551.01C1212.5 1551.91 1213.21 1552.98 1213.69 1554.16C1214.17 1555.33 1214.42 1556.59 1214.41 1557.87Z" stroke="#808080" stroke-linecap="round" stroke-linejoin="round"/>
<path d="M1303.4 1601.1C1303.4 1603.02 1302.83 1604.89 1301.76 1606.49C1300.7 1608.08 1299.18 1609.33 1297.41 1610.06C1295.64 1610.79 1293.69 1610.99 1291.8 1610.61C1289.92 1610.24 1288.19 1609.31 1286.84 1607.96C1285.48 1606.6 1284.56 1604.87 1284.18 1602.99C1283.81 1601.11 1284 1599.16 1284.73 1597.38C1285.47 1595.61 1286.71 1594.1 1288.31 1593.03C1289.9 1591.96 1291.78 1591.39 1293.7 1591.39C1296.27 1591.39 1298.74 1592.42 1300.56 1594.24C1302.38 1596.06 1303.4 1598.52 1303.4 1601.1Z" stroke="#808080" stroke-linecap="round" stroke-linejoin="round"/>
<path d="M1091.81 1084.55L1060.27 1229.27L1062.03 1037.21" stroke="#808080" stroke-linecap="round" stroke-linejoin="round"/>
<path d="M1102.55 1035.41L1098.22 1055.35" stroke="#808080" stroke-linecap="round" stroke-linejoin="round"/>
<path d="M1306.92 942.271C1306.92 942.271 1292.84 1000.44 1292.84 1023.5C1292.84 1046.55 1299.88 1101.02 1313.96 1106.3C1328.04 1111.58 1382.68 1108.06 1428.49 1088.7C1474.29 1069.34 1520.13 979.454 1520.13 979.454L1319.28 905.449L1306.92 942.271Z" fill="white" stroke="#263238" stroke-linecap="round" stroke-linejoin="round"/>
<path d="M1324.56 963.209L1322.8 1084.78L1407.37 1026.61L1324.56 963.209Z" fill="#CCCCCC" stroke="#263238" stroke-linecap="round" stroke-linejoin="round"/>
<path d="M1368.6 695.391C1368.6 695.391 1305.16 839.792 1299.88 885.684C1294.6 931.576 1306.92 998.496 1321.04 1012.53C1335.17 1026.56 1380.92 1042.49 1393.24 1042.49C1405.56 1042.49 1497.03 1009.01 1513.1 998.406C1529.16 987.802 1620.54 827.518 1620.54 827.518L1368.6 695.391Z" fill="#CCCCCC" stroke="#263238" stroke-linecap="round" stroke-linejoin="round"/>
<path d="M1423.21 751.753L1416.17 779.82L1363.33 871.424C1363.33 871.424 1366.85 897.868 1382.68 892.588C1398.52 887.308 1412.65 911.947 1421.45 897.868C1430.25 883.789 1428.49 876.704 1428.49 876.704" stroke="#263238" stroke-linecap="round" stroke-linejoin="round"/>
<path d="M1372.12 892.633L1356.29 913.752C1356.29 913.752 1409.13 943.715 1428.49 943.715C1447.84 943.715 1465.49 927.876 1465.49 927.876" stroke="#263238" stroke-linecap="round" stroke-linejoin="round"/>
<path d="M1481.69 814.07C1476.36 822.779 1468.15 827.608 1463.64 824.81C1459.13 822.012 1459.71 812.672 1465.04 803.962C1470.36 795.253 1478.57 790.425 1483.09 793.268C1487.6 796.111 1487.06 805.361 1481.69 814.07Z" fill="#263238"/>
<path d="M1394.01 764.433C1390.17 773.909 1383.05 779.956 1378.08 777.97C1373.12 775.985 1372.17 766.689 1376.01 757.213C1379.84 747.737 1386.97 741.69 1391.93 743.675C1396.9 745.661 1397.8 754.957 1394.01 764.433Z" fill="#263238"/>
<path d="M1453.17 825.758C1453.17 825.758 1476.09 848.681 1497.21 850.441" stroke="#263238" stroke-linecap="round" stroke-linejoin="round"/>
<path d="M1396.81 790.515C1396.81 790.515 1366.84 792.275 1352.72 776.436" stroke="#263238" stroke-linecap="round" stroke-linejoin="round"/>
<path d="M1563.45 797.555C1555.96 805 1546.08 816.778 1548.34 825.758C1551.86 839.837 1553.62 852.201 1553.62 852.201L1518.38 906.802L1537.73 913.842L1583.54 862.76L1595.58 870.567C1610.07 845.884 1620.54 827.518 1620.54 827.518L1563.45 797.555Z" fill="#263238" stroke="#263238" stroke-linecap="round" stroke-linejoin="round"/>
<path d="M1543.01 906.802C1543.01 906.802 1569.46 853.961 1594.14 853.961C1618.82 853.961 1611.74 890.963 1599.42 915.602C1587.1 940.24 1544.77 956.214 1539.49 943.805" fill="#CCCCCC"/>
<path d="M1543.01 906.802C1543.01 906.802 1569.46 853.961 1594.14 853.961C1618.82 853.961 1611.74 890.963 1599.42 915.602C1587.1 940.24 1544.77 956.214 1539.49 943.805" stroke="#263238" stroke-linecap="round" stroke-linejoin="round"/>
<path d="M1361.57 702.431L1616.48 857.21C1616.48 857.21 1752.71 674.228 1772.07 635.42C1791.43 596.613 1728.03 526.172 1694.54 489.17C1661.06 452.167 1550.14 446.888 1521.89 469.811C1493.65 492.735 1372.12 663.669 1361.57 702.431Z" fill="#263238" stroke="#263238" stroke-linecap="round" stroke-linejoin="round"/>
<path d="M1370.36 734.154C1370.36 734.154 1393.24 709.471 1416.17 734.154" stroke="#263238" stroke-width="3" stroke-linecap="round" stroke-linejoin="round"/>
<path d="M1463.73 769.397C1463.73 769.397 1497.21 769.397 1509.58 806.399" stroke="#263238" stroke-width="3" stroke-linecap="round" stroke-linejoin="round"/>
<path d="M1530.74 1359.63L1635.34 1634.26C1635.34 1634.26 1666.93 1636.02 1716.56 1634.26C1766.2 1632.5 1822.25 1611.34 1822.25 1611.34C1822.25 1611.34 1735.43 1342.35 1737.19 1322.95C1738.95 1303.54 1735.25 1248.62 1726.45 1229.22C1717.65 1209.82 1664.81 1179.9 1655.96 1185.18" fill="#263238"/>
<path d="M1530.74 1359.63L1635.34 1634.26C1635.34 1634.26 1666.93 1636.02 1716.56 1634.26C1766.2 1632.5 1822.25 1611.34 1822.25 1611.34C1822.25 1611.34 1735.43 1342.35 1737.19 1322.95C1738.95 1303.54 1735.25 1248.62 1726.45 1229.22C1717.65 1209.82 1664.81 1179.9 1655.96 1185.18" stroke="#263238" stroke-linecap="round" stroke-linejoin="round"/>
<path d="M1616.97 1558.32L1563.55 1364.19" stroke="#808080" stroke-linecap="round" stroke-linejoin="round"/>
<path d="M1545.31 1403.31L1532.59 1383.86" stroke="#808080" stroke-linecap="round" stroke-linejoin="round"/>
<path d="M1591.66 1473.93L1556.37 1420.14" stroke="#808080" stroke-linecap="round" stroke-linejoin="round"/>
<path d="M1637.1 1655.25C1637.1 1655.25 1415.99 1761.2 1407.37 1764.72C1398.75 1768.24 1329.84 1770.04 1317.52 1770.04C1305.2 1770.04 1262.88 1854.61 1262.88 1854.61H1393.24L1405.61 1836.96C1405.61 1836.96 1424.97 1842.24 1437.19 1833.45C1449.42 1824.65 1468.78 1808.81 1468.78 1808.81C1468.78 1808.81 1796.21 1783.94 1809.52 1692.25C1814.44 1658.45 1810.29 1639.77 1810.29 1639.77L1637.1 1655.25Z" fill="#CCCCCC" stroke="#263238" stroke-linecap="round" stroke-linejoin="round"/>
<path d="M1324.7 1798.02C1324.7 1798.02 1291.31 1843.15 1291.31 1853.26" stroke="#263238" stroke-linecap="round" stroke-linejoin="round"/>
<path d="M1355.2 1809.66C1355.2 1809.66 1330.52 1841.61 1326.14 1854.79" stroke="#263238" stroke-linecap="round" stroke-linejoin="round"/>
<path d="M1379.93 1821.31L1359.58 1854.7" stroke="#263238" stroke-linecap="round" stroke-linejoin="round"/>
<path d="M1614.27 1590.09C1616.25 1605.07 1618.51 1639.72 1619.46 1655.11C1619.62 1657.21 1620.52 1659.18 1621.98 1660.69C1623.45 1662.2 1625.4 1663.14 1627.49 1663.37C1648.29 1665.22 1706.91 1670 1745.53 1670C1775.13 1669.21 1804.53 1664.85 1833.08 1657.01C1836.44 1656.12 1839.4 1654.1 1841.46 1651.29C1843.51 1648.48 1844.54 1645.05 1844.36 1641.57L1841.2 1574.25C1841.38 1571.2 1840.9 1568.15 1839.8 1565.3C1838.7 1562.45 1837 1559.87 1834.82 1557.74C1832.64 1555.6 1830.03 1553.95 1827.16 1552.91C1824.29 1551.86 1821.23 1551.45 1818.19 1551.68L1633.8 1565.76C1630.89 1565.99 1628.05 1566.81 1625.47 1568.17C1622.88 1569.53 1620.6 1571.41 1618.77 1573.69C1616.94 1575.97 1615.59 1578.6 1614.82 1581.42C1614.04 1584.24 1613.86 1587.19 1614.27 1590.09Z" fill="white" stroke="#263238" stroke-linecap="round" stroke-linejoin="round"/>
<path d="M855.894 1016.05C855.894 1016.05 843.53 1213.38 854.134 1222.18C864.739 1230.98 951.018 1234.55 956.297 1218.66C961.577 1202.78 972.181 1003.73 954.538 998.406C936.894 993.081 855.894 1016.05 855.894 1016.05Z" fill="white" stroke="#263238" stroke-linecap="round" stroke-linejoin="round"/>
<path d="M733.56 285.611C733.56 285.611 630.991 269.095 515.426 198.971C365.656 108.315 227.663 41.3039 173.964 114.091C120.266 186.877 319.493 273.472 581.083 299.464C646.694 306.007 733.56 285.611 733.56 285.611Z" fill="white" stroke="#263238" stroke-linecap="round" stroke-linejoin="round"/>
<path d="M626.163 297.704C626.163 297.704 750.888 280.376 868.665 205.875C986.441 131.373 1138.96 20.5464 1151.06 114.091C1163.15 207.635 967.443 273.472 846.147 294.23C773.441 306.768 699.229 307.94 626.163 297.704Z" fill="#CCCCCC" stroke="#263238" stroke-linecap="round" stroke-linejoin="round"/>
<path d="M1 1854.74H2144.44" stroke="#263238" stroke-linecap="round" stroke-linejoin="round"/>
<path d="M714.562 1903.43H469.398L387.631 1763.46H796.284L714.562 1903.43Z" fill="#8C8C8C" stroke="#263238" stroke-linecap="round" stroke-linejoin="round"/>
<path d="M801.834 1741.21H375.267C368.937 1741.21 363.805 1746.34 363.805 1752.67V1764.72C363.805 1771.05 368.937 1776.18 375.267 1776.18H801.834C808.164 1776.18 813.296 1771.05 813.296 1764.72V1752.67C813.296 1746.34 808.164 1741.21 801.834 1741.21Z" fill="#8C8C8C" stroke="#263238" stroke-linecap="round" stroke-linejoin="round"/>
<path d="M91.7013 1683.95C91.7013 1683.95 75.1856 1662.92 57.1356 1653.89C39.0855 1644.87 1.54149 1637.2 1.54149 1637.2C1.54149 1637.2 34.6182 1629.71 60.2041 1635.71C85.79 1641.71 103.795 1667.29 103.795 1667.29C103.795 1667.29 96.259 1656.78 85.7448 1625.24C75.2307 1593.7 75.2307 1525.96 75.2307 1525.96C91.3028 1544.7 104.019 1566.07 112.82 1589.14C120.072 1610.14 125.093 1631.84 127.801 1653.89C127.801 1653.89 124.778 1601.32 133.803 1571.27C142.828 1541.22 168.369 1503.58 168.369 1503.58C168.369 1503.58 169.858 1569.73 159.344 1605.79C148.83 1641.84 144.317 1658.36 144.317 1658.36C150.912 1639.62 161.718 1622.64 175.905 1608.72C198.467 1587.69 252.617 1569.69 252.617 1569.69C252.617 1569.69 227.076 1616.26 210.516 1631.29C193.955 1646.31 177.484 1662.87 177.484 1662.87C177.484 1662.87 195.534 1649.34 227.122 1649.34C258.709 1649.34 296.208 1670.36 296.208 1670.36C296.208 1670.36 186.509 1668.83 165.345 1686.88L91.7013 1683.95Z" fill="#F9B443" stroke="#263238" stroke-linecap="round" stroke-linejoin="round"/>
<path d="M112.143 1675.91L93.5966 1663.1" stroke="#263238" stroke-linecap="round" stroke-linejoin="round"/>
<path d="M132.043 1685.89L106.412 1617.52" stroke="#263238" stroke-linecap="round" stroke-linejoin="round"/>
<path d="M129.2 1694.46L146.303 1594.73" stroke="#263238" stroke-linecap="round" stroke-linejoin="round"/>
<path d="M132.043 1685.89L180.508 1626.1" stroke="#263238" stroke-linecap="round" stroke-linejoin="round"/>
<path d="M122.567 1679.79L193.323 1661.7" stroke="#263238" stroke-linecap="round" stroke-linejoin="round"/>
<path d="M217.6 1918.87H67.5594L60.7907 1864.36C55.8503 1824.59 55.6231 1784.37 60.1138 1744.55L67.5594 1677.81H217.6L225.001 1742.97C229.625 1782.79 229.519 1823.02 224.685 1862.82L217.6 1918.87Z" fill="#263238"/>
<path d="M227.753 1816.52L205.236 1679.79L175.183 1915.71L122.567 1679.79L91.0245 1918.69L67.5595 1677.99" fill="#263238"/>
<path d="M227.753 1816.52L205.236 1679.79L175.183 1915.71L122.567 1679.79L91.0245 1918.69L67.5595 1677.99" stroke="white" stroke-linecap="round" stroke-linejoin="round"/>
<path d="M217.6 1918.87H67.5594L60.7907 1864.36C55.8503 1824.59 55.6231 1784.37 60.1138 1744.55L67.5594 1677.81H217.6L225.001 1742.97C229.625 1782.79 229.519 1823.02 224.685 1862.82L217.6 1918.87Z" stroke="#263238" stroke-linecap="round" stroke-linejoin="round"/>
<path d="M1876.17 1813.73C1876.17 1813.73 1851.04 1790.62 1838.85 1820.67C1826.67 1850.73 1837.09 1901.9 1846.66 1914.9C1856.23 1927.89 1878.25 1921.26 1878.25 1921.26C1883.37 1924.89 1889.57 1926.69 1895.85 1926.36C1900.65 1926.09 1905.43 1925.38 1910.11 1924.24C1910.11 1924.24 1927.88 1927.58 1937.9 1914.67C1947.92 1901.76 1963.98 1840.89 1949.73 1820.49C1935.47 1800.1 1912.59 1815.35 1912.59 1815.35C1912.59 1815.35 1897.7 1798.38 1876.17 1813.73Z" fill="#8C8C8C" stroke="#263238" stroke-linecap="round" stroke-linejoin="round"/>
<path d="M1876.17 1813.73C1873.58 1815.46 1871.39 1817.74 1869.77 1820.4C1868.15 1823.07 1867.13 1826.06 1866.79 1829.16" stroke="#263238" stroke-linecap="round" stroke-linejoin="round"/>
<path d="M1912.41 1815.35C1917.02 1820.92 1919.77 1827.81 1920.26 1835.02" stroke="#263238" stroke-linecap="round" stroke-linejoin="round"/>
<path d="M1865.57 1913.18L1878.07 1921.26" stroke="#263238" stroke-linecap="round" stroke-linejoin="round"/>
<path d="M1909.79 1924.24C1913.67 1919.47 1916.3 1913.81 1917.42 1907.77" stroke="#263238" stroke-linecap="round" stroke-linejoin="round"/>
<path d="M1895.35 1805.29L1905.5 1777.54L1915.61 1777.08L1902.93 1809.17L1895.35 1805.29Z" fill="#263238" stroke="#263238" stroke-linecap="round" stroke-linejoin="round"/>
<path d="M1750.09 1833.54C1750.09 1833.54 1726.99 1817.11 1718.23 1840.8C1709.48 1864.49 1721.44 1903.34 1730.51 1913C1739.58 1922.66 1754.51 1915.84 1754.51 1915.84C1760.54 1918.4 1767.07 1919.56 1773.6 1919.23C1777.74 1918.79 1781.83 1917.99 1785.83 1916.84C1785.83 1916.84 1801.44 1918.51 1809.34 1908.04C1817.24 1897.57 1827.62 1849.96 1814.08 1835.07C1800.54 1820.18 1781.59 1833.04 1781.59 1833.04C1781.59 1833.04 1767.87 1820.63 1750.09 1833.54Z" fill="white" stroke="#263238" stroke-linecap="round" stroke-linejoin="round"/>
<path d="M1750.09 1833.54C1748.03 1834.91 1746.32 1836.74 1745.07 1838.89C1743.83 1841.03 1743.09 1843.43 1742.92 1845.9" stroke="#263238" stroke-linecap="round" stroke-linejoin="round"/>
<path d="M1781.59 1832.9C1785.81 1836.78 1788.6 1841.96 1789.53 1847.61" stroke="#263238" stroke-linecap="round" stroke-linejoin="round"/>
<path d="M1746.8 1910.56L1754.51 1915.71" stroke="#263238" stroke-linecap="round" stroke-linejoin="round"/>
<path d="M1785.83 1916.7C1785.83 1916.7 1796.48 1914.81 1797.47 1907.04" stroke="#263238" stroke-linecap="round" stroke-linejoin="round"/>
<path d="M1766.25 1826.04L1755.55 1802.76L1764.26 1801.9L1773.02 1828.62L1766.25 1826.04Z" fill="#263238" stroke="#263238" stroke-linecap="round" stroke-linejoin="round"/>
<path d="M1993.77 1833.54C1993.77 1833.54 1970.66 1817.11 1961.91 1840.8C1953.15 1864.49 1965.11 1903.34 1974.18 1913C1983.25 1922.66 1998.19 1915.84 1998.19 1915.84C2004.21 1918.4 2010.74 1919.56 2017.28 1919.23C2021.42 1918.79 2025.51 1917.99 2029.51 1916.84C2029.51 1916.84 2045.12 1918.51 2053.02 1908.04C2060.91 1897.57 2071.29 1849.96 2057.75 1835.07C2044.22 1820.18 2025.26 1833.04 2025.26 1833.04C2025.26 1833.04 2011.55 1820.63 1993.77 1833.54Z" fill="white" stroke="#263238" stroke-linecap="round" stroke-linejoin="round"/>
<path d="M1993.77 1833.54C1991.71 1834.91 1989.99 1836.74 1988.75 1838.89C1987.5 1841.03 1986.77 1843.43 1986.59 1845.9" stroke="#263238" stroke-linecap="round" stroke-linejoin="round"/>
<path d="M2025.26 1832.9C2029.48 1836.78 2032.28 1841.96 2033.21 1847.61" stroke="#263238" stroke-linecap="round" stroke-linejoin="round"/>
<path d="M1990.47 1910.56L1998.19 1915.71" stroke="#263238" stroke-linecap="round" stroke-linejoin="round"/>
<path d="M2029.51 1916.7C2029.51 1916.7 2040.16 1914.81 2041.15 1907.04" stroke="#263238" stroke-linecap="round" stroke-linejoin="round"/>
<path d="M2009.92 1826.04L1999.23 1802.76L2007.94 1801.9L2016.69 1828.62L2009.92 1826.04Z" fill="#263238" stroke="#263238" stroke-linecap="round" stroke-linejoin="round"/>
<path d="M1739.98 1958.35C1739.98 1962.22 1738.84 1966.01 1736.68 1969.23C1734.53 1972.45 1731.47 1974.96 1727.89 1976.44C1724.32 1977.93 1720.38 1978.32 1716.58 1977.56C1712.78 1976.8 1709.29 1974.94 1706.55 1972.2C1703.81 1969.46 1701.95 1965.97 1701.19 1962.17C1700.44 1958.37 1700.82 1954.44 1702.31 1950.86C1703.79 1947.28 1706.3 1944.22 1709.52 1942.07C1712.74 1939.92 1716.53 1938.77 1720.4 1938.77C1722.97 1938.76 1725.52 1939.26 1727.9 1940.25C1730.28 1941.23 1732.44 1942.67 1734.26 1944.49C1736.08 1946.31 1737.52 1948.47 1738.51 1950.85C1739.49 1953.23 1739.99 1955.78 1739.98 1958.35Z" fill="#F9B443" stroke="#263238" stroke-linecap="round" stroke-linejoin="round"/>
<path d="M1794.13 1959.84C1794.14 1963.72 1793 1967.51 1790.86 1970.73C1788.71 1973.96 1785.65 1976.48 1782.08 1977.97C1778.5 1979.46 1774.56 1979.85 1770.76 1979.1C1766.96 1978.35 1763.46 1976.49 1760.72 1973.75C1757.97 1971.01 1756.1 1967.52 1755.35 1963.72C1754.59 1959.92 1754.97 1955.98 1756.45 1952.4C1757.93 1948.82 1760.44 1945.76 1763.66 1943.61C1766.89 1941.45 1770.67 1940.3 1774.55 1940.3C1777.12 1940.3 1779.67 1940.8 1782.04 1941.78C1784.42 1942.76 1786.58 1944.19 1788.4 1946.01C1790.21 1947.82 1791.66 1949.98 1792.64 1952.35C1793.63 1954.73 1794.13 1957.27 1794.13 1959.84Z" fill="#F9B443" stroke="#263238" stroke-linecap="round" stroke-linejoin="round"/>
<path d="M1891.74 1959.84C1891.74 1963.7 1890.59 1967.48 1888.45 1970.7C1886.3 1973.91 1883.25 1976.41 1879.68 1977.89C1876.11 1979.37 1872.18 1979.76 1868.39 1979C1864.6 1978.25 1861.12 1976.39 1858.38 1973.66C1855.65 1970.92 1853.79 1967.44 1853.04 1963.65C1852.28 1959.86 1852.67 1955.93 1854.15 1952.36C1855.63 1948.79 1858.13 1945.74 1861.35 1943.59C1864.56 1941.45 1868.34 1940.3 1872.2 1940.3C1877.38 1940.3 1882.35 1942.36 1886.02 1946.02C1889.68 1949.69 1891.74 1954.66 1891.74 1959.84Z" fill="#F9B443" stroke="#263238" stroke-linecap="round" stroke-linejoin="round"/>
<path d="M1846.61 1964.35C1846.61 1968.22 1845.47 1972 1843.32 1975.21C1841.17 1978.42 1838.12 1980.93 1834.55 1982.4C1830.98 1983.88 1827.05 1984.27 1823.26 1983.52C1819.47 1982.76 1815.99 1980.9 1813.26 1978.17C1810.53 1975.44 1808.67 1971.96 1807.91 1968.16C1807.16 1964.37 1807.54 1960.45 1809.02 1956.88C1810.5 1953.31 1813.01 1950.25 1816.22 1948.11C1819.43 1945.96 1823.21 1944.81 1827.08 1944.81C1832.26 1944.81 1837.23 1946.87 1840.89 1950.54C1844.56 1954.2 1846.61 1959.17 1846.61 1964.35Z" fill="#F9B443" stroke="#263238" stroke-linecap="round" stroke-linejoin="round"/>
<path d="M1654.25 1983.89C1665.04 1983.89 1673.79 1975.14 1673.79 1964.35C1673.79 1953.56 1665.04 1944.81 1654.25 1944.81C1643.46 1944.81 1634.71 1953.56 1634.71 1964.35C1634.71 1975.14 1643.46 1983.89 1654.25 1983.89Z" fill="#F9B443" stroke="#263238" stroke-linecap="round" stroke-linejoin="round"/>
<path d="M1796.39 2001.94C1807.18 2001.94 1815.93 1993.19 1815.93 1982.4C1815.93 1971.61 1807.18 1962.86 1796.39 1962.86C1785.6 1962.86 1776.85 1971.61 1776.85 1982.4C1776.85 1993.19 1785.6 2001.94 1796.39 2001.94Z" fill="#F9B443" stroke="#263238" stroke-linecap="round" stroke-linejoin="round"/>
<path d="M1945.89 1973.38C1945.89 1977.24 1944.74 1981.02 1942.6 1984.23C1940.45 1987.45 1937.4 1989.95 1933.83 1991.43C1930.26 1992.91 1926.33 1993.3 1922.54 1992.54C1918.75 1991.79 1915.27 1989.93 1912.53 1987.19C1909.8 1984.46 1907.94 1980.98 1907.19 1977.19C1906.43 1973.4 1906.82 1969.47 1908.3 1965.9C1909.78 1962.33 1912.28 1959.28 1915.5 1957.13C1918.71 1954.98 1922.49 1953.84 1926.35 1953.84C1931.53 1953.84 1936.5 1955.9 1940.17 1959.56C1943.83 1963.23 1945.89 1968.2 1945.89 1973.38Z" fill="#F9B443" stroke="#263238" stroke-linecap="round" stroke-linejoin="round"/>
<path d="M1762.55 1974.87C1762.56 1978.74 1761.42 1982.52 1759.28 1985.75C1757.14 1988.97 1754.09 1991.49 1750.52 1992.98C1746.95 1994.47 1743.02 1994.87 1739.22 1994.14C1735.42 1993.4 1731.93 1991.55 1729.18 1988.82C1726.43 1986.1 1724.55 1982.62 1723.77 1978.83C1723 1975.04 1723.37 1971.1 1724.83 1967.52C1726.29 1963.94 1728.78 1960.87 1731.98 1958.7C1735.18 1956.53 1738.96 1955.35 1742.83 1955.33C1745.41 1955.31 1747.96 1955.8 1750.35 1956.78C1752.74 1957.75 1754.91 1959.18 1756.75 1961C1758.58 1962.82 1760.03 1964.98 1761.03 1967.36C1762.03 1969.73 1762.54 1972.29 1762.55 1974.87Z" fill="#F9B443" stroke="#263238" stroke-linecap="round" stroke-linejoin="round"/>
<path d="M1721.93 1917.74C1721.93 1921.61 1720.79 1925.4 1718.63 1928.62C1716.48 1931.84 1713.42 1934.35 1709.84 1935.83C1706.27 1937.31 1702.33 1937.7 1698.53 1936.95C1694.73 1936.19 1691.24 1934.33 1688.5 1931.59C1685.76 1928.85 1683.9 1925.36 1683.14 1921.56C1682.39 1917.76 1682.77 1913.82 1684.26 1910.24C1685.74 1906.67 1688.25 1903.61 1691.47 1901.46C1694.69 1899.3 1698.48 1898.15 1702.35 1898.15C1704.92 1898.15 1707.47 1898.65 1709.85 1899.63C1712.23 1900.62 1714.39 1902.06 1716.21 1903.88C1718.03 1905.7 1719.47 1907.86 1720.46 1910.24C1721.44 1912.62 1721.94 1915.17 1721.93 1917.74Z" fill="#F9B443" stroke="#263238" stroke-linecap="round" stroke-linejoin="round"/>
<path d="M1723.69 1944.9C1723.69 1944.9 1737.23 1937.46 1743.14 1932.95C1749.05 1928.43 1753.61 1924.73 1753.61 1924.73L1761.1 1932.22C1764.08 1935.2 1771.57 1941.93 1771.57 1941.93" stroke="#263238" stroke-linecap="round" stroke-linejoin="round"/>
<path d="M1744.63 1963.63C1745.86 1959.2 1747.62 1954.92 1749.87 1950.91C1753.61 1944.18 1753.61 1924.73 1753.61 1924.73C1767.7 1927.37 1781.97 1928.88 1796.3 1929.25C1815.75 1929.25 1835.97 1924.01 1849.41 1921.75C1858.15 1920.52 1867.05 1921.04 1875.58 1923.29L1874.1 1947.21" stroke="#263238" stroke-linecap="round" stroke-linejoin="round"/>
<path d="M1875.58 1923.24C1884.05 1928.93 1892.8 1934.17 1901.8 1938.95C1906.32 1940.44 1931 1957 1931 1957" stroke="#263238" stroke-linecap="round" stroke-linejoin="round"/>
<path d="M1820.98 1929.2L1827.71 1950.91" stroke="#263238" stroke-linecap="round" stroke-linejoin="round"/>
<path d="M281.994 1928.66C270.126 1927.58 239.847 1908.13 239.847 1908.13V1909.44C231.568 1905.64 222.558 1903.7 213.449 1903.75C185.11 1903.75 162.096 1921.48 162.096 1943.41C162.096 1965.35 185.11 1983.03 213.449 1983.03C225.531 1983.18 237.381 1979.71 247.473 1973.06C257.22 1968.28 273.961 1960.61 282.084 1960.02C293.952 1959.12 324.231 1960.02 324.231 1960.02V1928.43C324.231 1928.43 293.862 1929.74 281.994 1928.66Z" fill="white" stroke="#263238" stroke-linecap="round" stroke-linejoin="round"/>
<path d="M759.507 1928.66C771.375 1927.58 801.654 1908.13 801.654 1908.13V1909.44C809.917 1905.64 818.912 1903.7 828.007 1903.75C856.345 1903.75 879.359 1921.48 879.359 1943.41C879.359 1965.35 856.345 1983.03 828.007 1983.03C815.925 1983.17 804.077 1979.7 793.983 1973.06C784.236 1968.28 767.494 1960.61 759.372 1960.02C747.504 1959.12 717.225 1960.02 717.225 1960.02V1928.43C717.225 1928.43 747.639 1929.74 759.507 1928.66Z" fill="white" stroke="#263238" stroke-linecap="round" stroke-linejoin="round"/>
<path d="M740.193 1897.48H303.97V1989.31H740.193V1897.48Z" fill="white" stroke="#263238" stroke-linecap="round" stroke-linejoin="round"/>
</svg>
